<?xml version="1.0" encoding="utf-8"?>
<!-- Generator: Adobe Illustrator 19.1.0, SVG Export Plug-In . SVG Version: 6.00 Build 0)  -->
<!DOCTYPE svg PUBLIC "-//W3C//DTD SVG 1.1//EN" "http://www.w3.org/Graphics/SVG/1.1/DTD/svg11.dtd">
<svg version="1.1" id="Layer_1" xmlns="http://www.w3.org/2000/svg" xmlns:xlink="http://www.w3.org/1999/xlink" x="0px" y="0px"
	 width="216px" height="216px" viewBox="0 0 216 216" style="enable-background:new 0 0 216 216;" xml:space="preserve">
<style type="text/css">
	.st0{fill:#7D8FB5;}
	.st1{fill:none;stroke:#F4D370;stroke-width:2;stroke-linecap:round;stroke-miterlimit:10;}
	.st2{fill:#F4D370;}
	.st3{fill:#F8F6EF;}
	.st4{fill:#E0E6F3;}
</style>
<g>
	<circle class="st2" cx="113" cy="105" r="42.5"/>
	<g>
		<path class="st3" d="M133.1,95c1.1,7.2-1.7,13.9-6.5,18.2c-2.7,2.4-4.4,5.6-4.4,9.2v0.2c0,4-3.2,7.3-7.3,7.3H111
			c-4,0-7.3-3.2-7.3-7.3v-0.2c0-3.5-1.6-6.8-4.3-9.1c-4.2-3.7-6.8-9.1-6.8-15.1c0-12.6,11.4-22.4,24.3-19.9
			C125.3,79.8,131.8,86.6,133.1,95z"/>
		<path class="st3" d="M116.8,132.1h-7.6c-0.1,0-0.2-0.1-0.2-0.2v-0.8c0-0.1,0.1-0.2,0.2-0.2h7.6c0.1,0,0.2,0.1,0.2,0.2v0.8
			C117,132.1,116.9,132.1,116.8,132.1z"/>
		<path class="st3" d="M116.8,134.1h-7.6c-0.1,0-0.2-0.1-0.2-0.2v-0.8c0-0.1,0.1-0.2,0.2-0.2h7.6c0.1,0,0.2,0.1,0.2,0.2v0.8
			C117,134.1,116.9,134.1,116.8,134.1z"/>
		<path class="st3" d="M114.5,136.8h-2.9c-0.2,0-0.3-0.1-0.3-0.3v-1.3c0-0.2,0.1-0.3,0.3-0.3h2.9c0.2,0,0.3,0.1,0.3,0.3v1.3
			C114.8,136.7,114.6,136.8,114.5,136.8z"/>
	</g>
</g>
</svg>
